<svg xmlns="http://www.w3.org/2000/svg" width="633.999" height="518" viewBox="0 0 633.999 518"><g transform="translate(-26 -87)"><path d="M316-14c36.175,0-185,43.325-185,79.5v357C131,458.675-10.825,504-47,504S0,458.675,0,422.5V65.5C0,29.325,279.825-14,316-14Z" transform="translate(340 101)" fill="#1c8a53"/><path d="M-52.183-14c-35.576,0,181.936,43.325,181.936,79.5v357c0,36.175,139.477,81.5,175.052,81.5s-46.222-45.325-46.222-81.5V65.5C258.584,29.325-16.607-14-52.183-14Z" transform="translate(82.115 101)" fill="#5aa48d"/></g></svg>