<svg xmlns="http://www.w3.org/2000/svg" width="633.999" height="707.5" viewBox="0 0 633.999 707.5"><g transform="translate(-26 102.5)"><path d="M316-14c36.175,0-185,133.825-185,170V460c0,36.175-141.825,44-178,44S0,458.675,0,422.5V65.5C0,29.325,279.825-14,316-14Z" transform="translate(340 101)" fill="#06572e"/><path d="M-52.183-14c-35.576,0,181.936,137.825,181.936,174V455c0,36.175,139.477,49,175.052,49s-46.222-45.325-46.222-81.5V65.5C258.584,29.325-16.607-14-52.183-14Z" transform="translate(82.115 101)" fill="#22d1de"/><path d="M109,209.5a113.344,113.344,0,0,1-21.871-2.124,111,111,0,0,1-20.368-6.091,109.877,109.877,0,0,1-18.431-9.637,108.509,108.509,0,0,1-16.058-12.762,106.217,106.217,0,0,1-13.247-15.467,103.356,103.356,0,0,1-10-17.75,101.153,101.153,0,0,1,0-81.339,103.356,103.356,0,0,1,10-17.75A106.217,106.217,0,0,1,32.272,31.114,108.508,108.508,0,0,1,48.33,18.351,109.878,109.878,0,0,1,66.761,8.714,111,111,0,0,1,87.129,2.624a113.673,113.673,0,0,1,43.741,0,111,111,0,0,1,20.368,6.091,109.878,109.878,0,0,1,18.431,9.637,108.509,108.509,0,0,1,16.058,12.762,106.218,106.218,0,0,1,13.247,15.467,103.356,103.356,0,0,1,10,17.75,101.153,101.153,0,0,1,0,81.339,103.356,103.356,0,0,1-10,17.75,106.218,106.218,0,0,1-13.247,15.467,108.51,108.51,0,0,1-16.058,12.762,109.878,109.878,0,0,1-18.431,9.637,111,111,0,0,1-20.368,6.091A113.344,113.344,0,0,1,109,209.5Z" transform="translate(230 -103)" fill="#279586"/></g></svg>